<svg width="217" height="217" viewBox="0 0 217 217" fill="none" xmlns="http://www.w3.org/2000/svg">
<circle cx="108.5" cy="108.5" r="108.5" fill="url(#paint0_linear)"/>
<path d="M120.984 100.528C130.813 101.744 138.312 105.088 143.48 110.56C148.648 116.032 151.232 122.872 151.232 131.08C151.232 137.261 149.661 142.885 146.52 147.952C143.379 153.019 138.616 157.072 132.232 160.112C125.949 163.051 118.248 164.52 109.128 164.52C101.528 164.52 94.1813 163.456 87.088 161.328C80.096 159.099 74.1173 156.059 69.152 152.208L77.664 136.856C81.5146 140.099 86.176 142.683 91.648 144.608C97.2213 146.432 102.947 147.344 108.824 147.344C115.816 147.344 121.288 145.925 125.24 143.088C129.293 140.149 131.32 136.197 131.32 131.232C131.32 126.267 129.395 122.416 125.544 119.68C121.795 116.843 116.019 115.424 108.216 115.424H98.488V101.896L122.656 73.168H74.32V56.6H146.824V69.824L120.984 100.528Z" fill="white"/>
<defs>
<linearGradient id="paint0_linear" x1="200" y1="-22.5" x2="1.99999" y2="212.5" gradientUnits="userSpaceOnUse">
<stop offset="0.0287699" stop-color="#D80D5C"/>
<stop offset="1" stop-color="#FF005E"/>
</linearGradient>
</defs>
</svg>
